<svg xmlns="http://www.w3.org/2000/svg" width="284" height="300" viewBox="0 0 284 300"><rect width="100%" height="100%" fill="#DDDDDD"/><path fill="#999999" d="M65.795 145.26v13.34q1.21 1.47 2.65 2.08 1.43.61 3.03.61 1.65 0 2.97-.59 1.32-.6 2.25-1.86.93-1.26 1.42-3.22.49-1.95.49-4.68 0-4.9-1.62-7.09-1.62-2.19-4.67-2.19-2.06 0-3.6.94-1.53.94-2.92 2.66Zm0-22.04v16.99q1.79-1.89 3.98-3 2.19-1.12 5.01-1.12 2.58 0 4.65 1.02 2.07 1.01 3.54 2.91 1.46 1.9 2.25 4.6.78 2.69.78 6.06 0 3.62-.9 6.58t-2.57 5.06q-1.66 2.1-4.01 3.26-2.35 1.16-5.22 1.16-1.4 0-2.53-.27-1.13-.28-2.08-.77-.96-.49-1.76-1.2t-1.52-1.58l-.32 2q-.17.75-.6 1.07-.42.32-1.14.32h-4.73v-43.09h7.17Zm44.22 13.34h7.16v29.75h-4.38q-1.42 0-1.79-1.31l-.5-2.37q-1.82 1.85-4.03 3-2.2 1.14-5.19 1.14-2.43 0-4.31-.82-1.87-.83-3.14-2.34-1.28-1.51-1.93-3.58-.65-2.07-.65-4.57v-18.9h7.16v18.9q0 2.73 1.26 4.22 1.26 1.5 3.79 1.5 1.85 0 3.48-.83 1.62-.83 3.07-2.28v-21.51Zm20.56 1.79.44 3.37q1.39-2.67 3.3-4.19 1.92-1.53 4.53-1.53 2.06 0 3.3.9l-.46 5.37q-.15.52-.42.74-.28.22-.74.22-.44 0-1.29-.15-.86-.14-1.67-.14-1.19 0-2.12.34-.92.35-1.66 1-.74.66-1.31 1.58-.56.93-1.06 2.12v18.33h-7.16v-29.75h4.2q1.11 0 1.54.39.44.39.58 1.4Zm26.19 12.36q1.33 0 2.32-.36.98-.37 1.64-1 .65-.64.98-1.54.34-.9.34-1.97 0-2.21-1.32-3.5t-3.96-1.29q-2.64 0-3.96 1.29-1.32 1.29-1.32 3.5 0 1.04.33 1.94.34.9.99 1.55.65.65 1.65 1.02 1 .36 2.31.36Zm8.09 16.93q0-.87-.52-1.42-.52-.55-1.42-.85-.9-.31-2.11-.45-1.2-.15-2.55-.22-1.35-.07-2.78-.13-1.44-.06-2.8-.23-1.19.66-1.93 1.56t-.74 2.09q0 .79.39 1.47.39.68 1.25 1.17.86.49 2.22.77 1.36.28 3.33.28 2 0 3.45-.31 1.45-.3 2.4-.84.94-.54 1.37-1.28.44-.74.44-1.61Zm-1.42-30.07h8.55v2.67q0 1.27-1.53 1.56l-2.67.5q.61 1.53.61 3.36 0 2.21-.89 3.99-.88 1.78-2.45 3.03-1.56 1.25-3.7 1.93-2.13.68-4.59.68-.87 0-1.68-.09-.82-.08-1.6-.23-1.39.84-1.39 1.89 0 .9.83 1.32.82.42 2.19.59 1.36.17 3.1.22 1.74.04 3.57.19 1.82.14 3.56.5 1.74.37 3.11 1.15 1.36.78 2.18 2.13.83 1.35.83 3.47 0 1.97-.97 3.82-.97 1.86-2.81 3.31t-4.53 2.33q-2.68.89-6.1.89-3.37 0-5.86-.65-2.49-.66-4.15-1.74-1.65-1.09-2.46-2.51-.81-1.42-.81-2.96 0-2.09 1.26-3.49 1.26-1.41 3.46-2.25-1.19-.61-1.88-1.63-.7-1.01-.7-2.66 0-.67.25-1.38.25-.71.72-1.41.48-.69 1.21-1.32.72-.62 1.71-1.11-2.26-1.22-3.55-3.25-1.29-2.03-1.29-4.76 0-2.2.88-3.99.88-1.78 2.46-3.04 1.59-1.26 3.75-1.93 2.16-.67 4.71-.67 1.91 0 3.59.4 1.69.39 3.08 1.14Zm18.73 10.44h13.52q0-1.39-.4-2.62-.39-1.24-1.17-2.16-.78-.93-1.99-1.47-1.2-.54-2.79-.54-3.11 0-4.89 1.77-1.78 1.77-2.28 5.02Zm18.27 4.32h-18.41q.17 2.29.81 3.96t1.68 2.76q1.05 1.08 2.48 1.62 1.44.54 3.18.54 1.74 0 3-.41t2.2-.9q.94-.49 1.65-.9.72-.4 1.38-.4.9 0 1.34.66l2.06 2.61q-1.19 1.39-2.67 2.34-1.48.94-3.09 1.51-1.61.56-3.28.79-1.67.23-3.23.23-3.1 0-5.77-1.02-2.67-1.03-4.64-3.05-1.97-2.02-3.11-4.99-1.13-2.97-1.13-6.89 0-3.04.99-5.72.99-2.69 2.83-4.67 1.84-1.99 4.49-3.15 2.66-1.16 5.99-1.16 2.81 0 5.19.9 2.38.9 4.09 2.63 1.71 1.72 2.68 4.23.97 2.51.97 5.73 0 1.62-.34 2.19-.35.56-1.34.56Zm13.37-13.98.44 3.37q1.39-2.67 3.3-4.19 1.92-1.53 4.53-1.53 2.06 0 3.3.9l-.46 5.37q-.15.52-.42.74-.28.22-.74.22-.44 0-1.29-.15-.86-.14-1.67-.14-1.19 0-2.12.34-.92.35-1.66 1-.74.66-1.31 1.58-.56.93-1.06 2.12v18.33h-7.16v-29.75h4.2q1.11 0 1.54.39.44.39.58 1.4Z"/></svg>