<svg xmlns="http://www.w3.org/2000/svg" width="284" height="300" viewBox="0 0 284 300"><rect width="100%" height="100%" fill="#DDDDDD"/><path fill="#999999" d="m89.07 129.875-2.4 3.33q-.41.52-.8.81-.39.3-1.13.3-.7 0-1.37-.43-.66-.42-1.59-.96-.92-.54-2.2-.96-1.27-.43-3.16-.43-2.41 0-4.22.87-1.81.87-3.01 2.5-1.21 1.63-1.8 3.94-.59 2.31-.59 5.24 0 3.03.65 5.4.64 2.36 1.86 3.97 1.23 1.61 2.96 2.45 1.74.83 3.93.83 2.18 0 3.53-.54 1.35-.53 2.28-1.18.92-.65 1.6-1.19.69-.53 1.54-.53 1.11 0 1.67.85l2.62 3.33q-1.51 1.78-3.29 2.98t-3.68 1.92q-1.91.72-3.92 1.02-2.02.29-4.02.29-3.51 0-6.62-1.31-3.11-1.31-5.44-3.83-2.33-2.51-3.68-6.16-1.35-3.64-1.35-8.3 0-4.19 1.2-7.76 1.2-3.57 3.53-6.18 2.33-2.6 5.78-4.08 3.44-1.48 7.91-1.48 4.26 0 7.46 1.37 3.2 1.36 5.75 3.92Zm29.64-4.7h9.14v37.96h-5.59q-1.81 0-2.29-1.66l-.63-3.04q-2.33 2.37-5.14 3.83-2.82 1.46-6.63 1.46-3.11 0-5.49-1.05-2.39-1.06-4.02-2.98-1.62-1.92-2.46-4.57-.83-2.65-.83-5.83v-24.12h9.14v24.12q0 3.48 1.61 5.39 1.61 1.9 4.83 1.9 2.37 0 4.44-1.05 2.07-1.06 3.92-2.91v-27.45Zm26.23 2.29.56 4.29q1.77-3.4 4.22-5.34 2.44-1.94 5.77-1.94 2.62 0 4.22 1.14l-.6 6.85q-.18.66-.53.94-.35.28-.95.28-.55 0-1.64-.19-1.09-.18-2.13-.18-1.52 0-2.7.44-1.19.45-2.13 1.28-.94.83-1.66 2.02-.73 1.18-1.35 2.7v23.38h-9.14v-37.96h5.36q1.41 0 1.96.5.56.5.74 1.79Zm27.6 0 .56 4.29q1.78-3.4 4.22-5.34 2.44-1.94 5.77-1.94 2.63 0 4.22 1.14l-.59 6.85q-.19.66-.54.94-.35.28-.94.28-.56 0-1.65-.19-1.09-.18-2.13-.18-1.52 0-2.7.44-1.18.45-2.13 1.28-.94.83-1.66 2.02-.72 1.18-1.35 2.7v23.38h-9.14v-37.96h5.36q1.41 0 1.96.5.56.5.74 1.79Zm46.7-2.29h7.32l-20.68 48.39q-.41.97-1.05 1.47-.65.49-1.98.49h-6.81l7.1-15.24-15.35-35.11h8.03q1.07 0 1.68.52.61.51.91 1.18l8.06 19.68q.41 1 .69 2 .28 1 .53 2.04.34-1.04.67-2.06.33-1.01.74-2.01l7.62-19.65q.3-.74.98-1.22.69-.48 1.54-.48Z"/></svg>