<svg xmlns="http://www.w3.org/2000/svg" width="284" height="300" viewBox="0 0 284 300"><rect width="100%" height="100%" fill="#DDDDDD"/><path fill="#999999" d="M64.58 168.705h-6.3v-26.16h3.85q1.23 0 1.61 1.14l.41 1.94q.69-.76 1.44-1.4.75-.64 1.61-1.1.85-.46 1.83-.72.98-.27 2.16-.27 2.47 0 4.06 1.34 1.6 1.34 2.39 3.55.61-1.3 1.53-2.23.92-.93 2.01-1.51 1.1-.59 2.34-.87 1.23-.28 2.48-.28 2.17 0 3.85.66 1.68.66 2.83 1.94 1.15 1.27 1.75 3.11.6 1.84.6 4.21v16.65h-6.3v-16.65q0-2.5-1.1-3.76-1.09-1.27-3.21-1.27-.97 0-1.8.34-.83.33-1.45.95-.63.63-.98 1.57-.36.94-.36 2.17v16.65h-6.32v-16.65q0-2.63-1.06-3.83-1.06-1.2-3.1-1.2-1.38 0-2.56.68-1.19.68-2.21 1.85v19.15Zm52.66-26.16h6.3v26.16h-3.85q-1.25 0-1.58-1.15l-.44-2.09q-1.6 1.63-3.54 2.64-1.94 1.01-4.57 1.01-2.14 0-3.78-.73-1.65-.73-2.77-2.05-1.12-1.33-1.7-3.15-.57-1.82-.57-4.02v-16.62h6.3v16.62q0 2.4 1.11 3.71 1.11 1.32 3.33 1.32 1.63 0 3.06-.73 1.42-.73 2.7-2v-18.92Zm20.65 26.16h-6.29v-21.42l-2.27-.36q-.74-.15-1.19-.52-.45-.37-.45-1.06v-2.57h3.91v-1.94q0-2.25.67-4.03.68-1.79 1.94-3.04 1.26-1.24 3.07-1.91 1.81-.66 4.08-.66 1.81 0 3.37.48l-.13 3.17q-.03.35-.2.57-.18.22-.48.33-.29.12-.67.15-.38.04-.82.04-1.12 0-2 .24-.88.25-1.49.85t-.93 1.58q-.32.98-.32 2.43v1.74h6.81v4.48h-6.61v21.45Zm18.29 0h-6.3v-21.42l-2.27-.36q-.74-.15-1.19-.52-.44-.37-.44-1.06v-2.57h3.9v-1.94q0-2.25.67-4.03.68-1.79 1.94-3.04 1.26-1.24 3.08-1.91 1.81-.66 4.08-.66 1.81 0 3.36.48l-.13 3.17q-.02.35-.2.57-.18.22-.47.33-.3.12-.68.15-.38.04-.81.04-1.13 0-2.01.24-.88.25-1.49.85t-.93 1.58q-.32.98-.32 2.43v1.74h6.81v4.48h-6.6v21.45Zm10.35-26.16h6.32v26.16h-6.32v-26.16Zm7.19-7.63q0 .82-.33 1.53-.33.72-.88 1.25-.55.54-1.29.86-.74.31-1.58.31-.81 0-1.54-.31-.73-.32-1.26-.86-.54-.53-.86-1.25-.32-.71-.32-1.53 0-.84.32-1.58.32-.74.86-1.27.53-.54 1.26-.86.73-.32 1.54-.32.84 0 1.58.32.74.32 1.29.86.55.53.88 1.27.33.74.33 1.58Zm11.02 8.77.43 2.07q.79-.79 1.67-1.47.88-.67 1.86-1.14.98-.48 2.11-.74 1.12-.27 2.44-.27 2.15 0 3.8.73 1.66.72 2.77 2.04 1.11 1.31 1.68 3.13.58 1.83.58 4.02v16.65h-6.3v-16.65q0-2.4-1.1-3.71-1.09-1.32-3.34-1.32-1.63 0-3.06.74-1.43.74-2.7 2.02v18.92h-6.3v-26.16h3.85q1.22 0 1.61 1.14Zm40.7 1.69-1.43 2.27q-.26.4-.54.57-.28.17-.71.17-.46 0-.98-.26-.53-.25-1.22-.57-.68-.32-1.56-.58-.88-.25-2.08-.25-1.86 0-2.92.79-1.06.79-1.06 2.06 0 .85.55 1.42t1.45 1.01q.91.43 2.05.78 1.15.34 2.34.75 1.18.41 2.33.93 1.15.52 2.05 1.32.91.81 1.46 1.93.55 1.12.55 2.7 0 1.89-.68 3.48-.68 1.6-2 2.76-1.33 1.16-3.28 1.81-1.95.65-4.5.65-1.35 0-2.64-.24-1.29-.25-2.47-.68-1.19-.43-2.19-1.02-1.01-.59-1.78-1.28l1.46-2.39q.28-.44.66-.67.38-.22.97-.22.58 0 1.11.33.52.33 1.21.71.69.38 1.62.72.93.33 2.36.33 1.12 0 1.92-.27.81-.27 1.33-.7.52-.44.76-1.01.25-.57.25-1.19 0-.91-.55-1.5t-1.46-1.02q-.9-.43-2.06-.78-1.16-.34-2.37-.75-1.21-.41-2.37-.96-1.17-.54-2.07-1.39-.91-.84-1.45-2.06-.55-1.23-.55-2.96 0-1.61.64-3.06.63-1.45 1.87-2.54 1.24-1.08 3.09-1.73 1.84-.65 4.27-.65 2.7 0 4.92.89 2.22.89 3.7 2.35Z"/></svg>