<svg xmlns="http://www.w3.org/2000/svg" width="284" height="300" viewBox="0 0 284 300"><rect width="100%" height="100%" fill="#DDDDDD"/><path fill="#999999" d="M68.865 141.95v16.56q1.51 1.84 3.3 2.6 1.78.75 3.87.75 2.01 0 3.63-.75 1.62-.76 2.76-2.31 1.13-1.55 1.74-3.9.61-2.36.61-5.57 0-3.24-.52-5.49t-1.49-3.65q-.97-1.4-2.36-2.05-1.39-.65-3.15-.65-2.77 0-4.72 1.17-1.94 1.17-3.67 3.29Zm-1.19-9.18.72 3.42q2.27-2.55 5.15-4.14 2.88-1.58 6.77-1.58 3.02 0 5.53 1.26 2.5 1.26 4.32 3.65 1.81 2.4 2.8 5.91.99 3.51.99 8.04 0 4.14-1.11 7.67-1.12 3.53-3.19 6.12-2.07 2.59-5 4.05-2.94 1.46-6.57 1.46-3.1 0-5.29-.95-2.2-.96-3.93-2.65v15.12h-8.89v-49h5.44q1.72 0 2.26 1.62Zm52.71 25.78v-6.23q-3.85.18-6.48.67-2.63.48-4.21 1.24-1.59.76-2.27 1.76-.69 1.01-.69 2.2 0 2.34 1.39 3.35 1.39 1.01 3.62 1.01 2.73 0 4.73-.99 2-.99 3.91-3.01Zm-18.79-19.4-1.59-2.85q6.37-5.83 15.34-5.83 3.24 0 5.79 1.06 2.56 1.06 4.32 2.95 1.77 1.89 2.69 4.52.91 2.63.91 5.76v23.33h-4.03q-1.26 0-1.94-.38-.69-.38-1.08-1.53l-.79-2.66q-1.41 1.26-2.74 2.21-1.33.96-2.77 1.6-1.44.65-3.08.99-1.64.35-3.62.35-2.34 0-4.32-.63-1.98-.63-3.42-1.89-1.44-1.26-2.23-3.14-.79-1.87-.79-4.35 0-1.41.47-2.79.46-1.39 1.53-2.65 1.06-1.26 2.75-2.37 1.69-1.12 4.16-1.95 2.46-.83 5.74-1.35 3.28-.52 7.49-.63v-2.16q0-3.71-1.59-5.49-1.58-1.78-4.57-1.78-2.16 0-3.58.5-1.42.51-2.5 1.14-1.08.63-1.96 1.13-.89.51-1.97.51-.93 0-1.58-.49t-1.04-1.13Zm60.37-4-2.02 3.2q-.36.58-.75.81-.4.24-1.01.24-.65 0-1.39-.36-.74-.36-1.71-.81-.97-.45-2.21-.81-1.24-.36-2.94-.36-2.62 0-4.12 1.11-1.49 1.12-1.49 2.92 0 1.19.77 2 .78.81 2.05 1.42 1.28.61 2.9 1.1 1.62.48 3.3 1.06 1.67.58 3.29 1.31 1.62.74 2.9 1.88 1.28 1.13 2.05 2.71.77 1.59.77 3.82 0 2.66-.95 4.91t-2.83 3.89q-1.87 1.64-4.62 2.56-2.76.92-6.36.92-1.9 0-3.72-.35-1.82-.34-3.49-.95-1.68-.61-3.1-1.44-1.42-.83-2.5-1.8l2.05-3.38q.4-.62.94-.94.54-.32 1.36-.32.83 0 1.57.46.74.47 1.71 1.01t2.29 1.01q1.31.47 3.33.47 1.58 0 2.71-.38 1.14-.38 1.88-.99.73-.61 1.08-1.42.34-.81.34-1.68 0-1.29-.78-2.12-.77-.83-2.05-1.44-1.28-.61-2.91-1.1-1.64-.48-3.35-1.06-1.71-.58-3.35-1.35-1.64-.77-2.92-1.96-1.27-1.19-2.05-2.92-.77-1.73-.77-4.17 0-2.27.9-4.32.9-2.06 2.64-3.59 1.75-1.53 4.36-2.44 2.61-.92 6.03-.92 3.82 0 6.95 1.26 3.13 1.26 5.22 3.31Zm19.4 33.52q-4.82 0-7.4-2.72-2.57-2.72-2.57-7.51v-20.63h-3.78q-.72 0-1.22-.46-.51-.47-.51-1.41v-3.53l5.94-.97 1.87-10.08q.18-.72.69-1.11.5-.4 1.29-.4h4.61v11.63h9.87v6.33h-9.87v20.02q0 1.73.85 2.7.84.97 2.32.97.83 0 1.39-.2.55-.19.97-.41.41-.22.74-.41.32-.2.64-.2.4 0 .65.2.25.19.54.59l2.67 4.32q-1.95 1.62-4.47 2.45-2.52.83-5.22.83Zm33.99-10.12v-6.23q-3.86.18-6.48.67-2.63.48-4.22 1.24-1.58.76-2.26 1.76-.69 1.01-.69 2.2 0 2.34 1.39 3.35 1.38 1.01 3.62 1.01 2.73 0 4.73-.99 2-.99 3.91-3.01Zm-18.8-19.4-1.58-2.85q6.37-5.83 15.34-5.83 3.24 0 5.79 1.06 2.56 1.06 4.32 2.95 1.77 1.89 2.68 4.52.92 2.63.92 5.76v23.33h-4.03q-1.26 0-1.94-.38-.69-.38-1.08-1.53l-.8-2.66q-1.4 1.26-2.73 2.21-1.33.96-2.77 1.6-1.44.65-3.08.99-1.64.35-3.62.35-2.34 0-4.32-.63-1.98-.63-3.42-1.89-1.44-1.26-2.23-3.14-.79-1.87-.79-4.35 0-1.41.46-2.79.47-1.39 1.53-2.65 1.07-1.26 2.76-2.37 1.69-1.12 4.16-1.95 2.46-.83 5.74-1.35 3.27-.52 7.49-.63v-2.16q0-3.71-1.59-5.49-1.58-1.78-4.57-1.78-2.16 0-3.58.5-1.42.51-2.5 1.14-1.08.63-1.97 1.13-.88.51-1.96.51-.93 0-1.58-.49t-1.05-1.13Z"/></svg>