<svg xmlns="http://www.w3.org/2000/svg" width="284" height="300" viewBox="0 0 284 300"><rect width="100%" height="100%" fill="#DDDDDD"/><path fill="#999999" d="M70.355 144.22v17.48q1.6 1.94 3.48 2.74 1.88.8 4.08.8 2.13 0 3.84-.8t2.91-2.43q1.19-1.64 1.84-4.13.65-2.49.65-5.87 0-3.42-.56-5.79-.55-2.38-1.57-3.86-1.03-1.48-2.49-2.17-1.46-.68-3.33-.68-2.92 0-4.97 1.24-2.06 1.23-3.88 3.47Zm-1.25-9.69.76 3.61q2.39-2.7 5.43-4.37 3.04-1.67 7.14-1.67 3.2 0 5.84 1.33 2.64 1.33 4.56 3.86 1.92 2.52 2.96 6.23 1.05 3.7 1.05 8.49 0 4.37-1.18 8.1-1.18 3.72-3.37 6.46-2.18 2.73-5.28 4.27-3.09 1.54-6.93 1.54-3.27 0-5.59-1.01-2.32-1-4.14-2.79v15.96h-9.39v-51.72h5.74q1.83 0 2.4 1.71Zm35.34-1.71h9.42v38.99h-9.42v-38.99Zm10.71-11.36q0 1.22-.49 2.28-.5 1.06-1.31 1.86-.82.8-1.92 1.27-1.1.48-2.36.48-1.21 0-2.3-.48-1.08-.47-1.88-1.27-.8-.8-1.27-1.86-.48-1.06-.48-2.28 0-1.25.48-2.36.47-1.1 1.27-1.9.8-.79 1.88-1.27 1.09-.47 2.3-.47 1.26 0 2.36.47 1.1.48 1.92 1.27.81.8 1.31 1.9.49 1.11.49 2.36Zm36.29 11.36v3.88q0 .99-.34 1.94t-.91 1.55l-18.51 24.4h19.19v7.22h-30.09v-3.91q0-.65.3-1.54.3-.9.91-1.69l18.7-24.67h-18.81v-7.18h29.56Zm34.92 0v3.88q0 .99-.34 1.94t-.91 1.55l-18.51 24.4h19.19v7.22h-30.09v-3.91q0-.65.3-1.54.31-.9.91-1.69l18.7-24.67h-18.81v-7.18h29.56Zm27.52 28.92v-6.57q-4.07.19-6.84.7-2.78.51-4.45 1.31-1.67.8-2.39 1.86-.73 1.07-.73 2.32 0 2.47 1.47 3.53 1.46 1.07 3.81 1.07 2.89 0 5-1.05 2.11-1.04 4.13-3.17Zm-19.84-20.48-1.67-3q6.72-6.16 16.18-6.16 3.43 0 6.12 1.12 2.7 1.12 4.56 3.12 1.87 1.99 2.83 4.77.97 2.77.97 6.08v24.62h-4.25q-1.33 0-2.05-.4-.73-.4-1.15-1.61l-.83-2.82q-1.48 1.33-2.89 2.34-1.4 1.01-2.92 1.69-1.52.69-3.25 1.05-1.73.36-3.82.36-2.47 0-4.56-.67-2.09-.66-3.61-1.99t-2.36-3.31q-.83-1.97-.83-4.6 0-1.48.49-2.94t1.61-2.79q1.13-1.33 2.91-2.51 1.79-1.18 4.39-2.05 2.6-.88 6.06-1.43 3.46-.55 7.91-.66v-2.28q0-3.92-1.68-5.8-1.67-1.88-4.82-1.88-2.28 0-3.78.53t-2.64 1.2q-1.14.66-2.08 1.2-.93.53-2.07.53-.98 0-1.67-.52-.68-.51-1.1-1.19Z"/></svg>