<svg xmlns="http://www.w3.org/2000/svg" width="284" height="300" viewBox="0 0 284 300"><rect width="100%" height="100%" fill="#DDDDDD"/><path fill="#999999" d="m71.37 146.585-1.07 1.69q-.18.3-.39.42-.21.13-.54.13-.34 0-.73-.19-.39-.19-.9-.43t-1.17-.43q-.65-.19-1.55-.19-1.38 0-2.17.59t-.79 1.54q0 .63.41 1.05.41.43 1.08.75.67.33 1.53.58.85.26 1.74.57.88.3 1.74.69.85.39 1.53.99.67.59 1.08 1.43.41.84.41 2.02 0 1.4-.51 2.59-.5 1.19-1.49 2.05-.99.86-2.44 1.35-1.45.48-3.35.48-1.01 0-1.97-.18t-1.84-.5q-.89-.32-1.64-.76-.75-.44-1.32-.95l1.09-1.79q.21-.32.49-.49.29-.17.72-.17.44 0 .83.25.39.24.9.53.51.28 1.21.53.69.25 1.76.25.83 0 1.43-.2t.99-.53q.39-.32.57-.75.18-.42.18-.88 0-.68-.41-1.12-.41-.44-1.08-.76-.68-.32-1.54-.58-.87-.26-1.77-.56-.9-.3-1.77-.71-.86-.41-1.53-1.04-.68-.62-1.09-1.54-.41-.91-.41-2.2 0-1.2.48-2.28.47-1.08 1.4-1.89.92-.81 2.29-1.29 1.38-.49 3.19-.49 2.01 0 3.66.67 1.66.66 2.76 1.75Zm14.04 12.34v-3.28q-2.03.09-3.42.35-1.39.26-2.22.66-.84.39-1.2.93-.36.53-.36 1.16 0 1.23.73 1.76t1.91.53q1.44 0 2.5-.52 1.05-.52 2.06-1.59Zm-9.92-10.24-.83-1.5q3.36-3.08 8.09-3.08 1.71 0 3.06.57 1.35.56 2.28 1.55.93 1 1.41 2.39.49 1.39.49 3.04v12.31h-2.13q-.66 0-1.03-.2-.36-.2-.57-.81l-.41-1.4q-.74.66-1.45 1.17-.7.5-1.46.84-.76.34-1.62.52-.87.18-1.91.18-1.24 0-2.28-.33-1.05-.33-1.81-1-.76-.66-1.18-1.65-.42-.99-.42-2.3 0-.74.25-1.47t.81-1.4q.56-.66 1.45-1.25.9-.59 2.2-1.03 1.3-.43 3.03-.71 1.73-.28 3.95-.33v-1.14q0-1.96-.84-2.9-.83-.94-2.41-.94-1.14 0-1.89.27-.75.26-1.32.59-.57.34-1.04.6-.46.27-1.03.27-.5 0-.84-.26-.34-.25-.55-.6Zm22.97-3.36.33 1.54q.58-.59 1.24-1.09.66-.51 1.39-.86.73-.35 1.56-.55.84-.2 1.83-.2 1.59 0 2.83.54 1.23.55 2.06 1.52.83.98 1.26 2.34.42 1.36.42 2.99v12.41h-4.69v-12.41q0-1.78-.82-2.76-.81-.98-2.49-.98-1.21 0-2.28.55-1.06.55-2.01 1.5v14.1H94.4v-19.49h2.87q.91 0 1.19.85Zm29.6 12.86v-8.74q-.79-.96-1.73-1.36-.94-.4-2.03-.4-1.06 0-1.92.4-.85.4-1.46 1.2-.61.81-.93 2.05-.32 1.25-.32 2.94 0 1.71.27 2.9.28 1.19.79 1.94t1.25 1.08q.75.33 1.66.33 1.46 0 2.49-.61 1.02-.61 1.93-1.73Zm0-22.45h4.7v28.23h-2.87q-.93 0-1.18-.85l-.4-1.89q-1.18 1.35-2.71 2.19-1.53.83-3.56.83-1.59 0-2.92-.66-1.33-.66-2.29-1.93-.96-1.26-1.49-3.12-.52-1.87-.52-4.26 0-2.17.59-4.03.59-1.86 1.69-3.23 1.1-1.37 2.64-2.14t3.46-.77q1.63 0 2.79.52 1.16.51 2.07 1.39v-10.28Zm33.6 8.74h3.57l-6.2 19.49h-3.76q-.64 0-.89-.84l-3.5-11.26q-.17-.57-.31-1.13-.14-.56-.24-1.13-.11.57-.25 1.15-.15.58-.32 1.15l-3.55 11.22q-.23.84-1.01.84h-3.61l-6.17-19.49h3.74q.51 0 .87.24.37.25.48.63l2.79 10.41q.21.86.37 1.67.16.82.28 1.64.21-.82.45-1.64.23-.81.5-1.67l3.23-10.45q.11-.38.45-.63.33-.24.8-.24h2.07q.5 0 .85.24.35.25.46.63l3.14 10.45q.25.86.47 1.68.21.83.42 1.65.25-1.62.71-3.33l2.86-10.41q.14-.38.48-.63.34-.24.82-.24Zm6.38 0h4.71v19.49h-4.71v-19.49Zm5.36-5.69q0 .61-.25 1.14-.25.54-.65.94-.41.4-.96.63-.55.24-1.18.24-.61 0-1.15-.24-.54-.23-.94-.63-.4-.4-.64-.94-.24-.53-.24-1.14 0-.62.24-1.17.24-.55.64-.95.4-.4.94-.64.54-.24 1.15-.24.63 0 1.18.24.55.24.96.64.4.4.65.95.25.55.25 1.17Zm10.64 25.48q-2.55 0-3.91-1.43-1.35-1.43-1.35-3.96v-10.89h-2q-.38 0-.65-.25-.26-.24-.26-.74v-1.86l3.13-.51.99-5.32q.1-.38.36-.59.27-.21.69-.21h2.43v6.14h5.2v3.34h-5.2v10.56q0 .92.45 1.43.44.51 1.22.51.44 0 .73-.1.3-.11.52-.22.21-.11.38-.22.18-.1.35-.1.21 0 .34.1.13.11.28.31l1.41 2.28q-1.03.86-2.36 1.3-1.33.43-2.75.43Zm22.84-17.38-1.24 1.71q-.21.26-.41.42-.2.15-.58.15-.36 0-.7-.22-.34-.22-.82-.49-.47-.28-1.13-.5-.65-.22-1.62-.22-1.24 0-2.17.45-.93.45-1.55 1.28-.61.84-.92 2.03-.3 1.18-.3 2.68 0 1.56.33 2.78.33 1.22.96 2.04.63.83 1.52 1.26.89.42 2.01.42 1.13 0 1.82-.27.69-.28 1.17-.61.47-.33.82-.61.36-.27.79-.27.57 0 .86.43l1.35 1.71q-.78.92-1.69 1.53-.92.62-1.89.99-.98.37-2.02.52-1.03.15-2.06.15-1.81 0-3.4-.67-1.6-.67-2.79-1.97-1.2-1.29-1.89-3.16-.7-1.87-.7-4.27 0-2.14.62-3.98.62-1.83 1.81-3.17 1.2-1.34 2.97-2.1 1.76-.76 4.06-.76 2.19 0 3.83.71 1.65.7 2.96 2.01Zm7.81-11.15v10.83q1.14-1.07 2.5-1.73 1.37-.67 3.21-.67 1.6 0 2.84.54 1.23.55 2.06 1.52.82.98 1.25 2.34.43 1.36.43 2.99v12.41h-4.69v-12.41q0-1.78-.82-2.76-.82-.98-2.49-.98-1.22 0-2.28.55-1.06.55-2.01 1.5v14.1h-4.7v-28.23h4.7Z"/></svg>